# xmcd
#
# Track frame offsets: 
#        150
#        2630
#        17697
#        30767
#        41310
#        52287
#        61620
#        73727
#        85340
#        91815
#        101505
#        112300
#        123482
#        134162
#        141750
#        158487
#        166907
#        180070
#        189662
#
# Disc length: 2671 seconds
#
# Revision: 2
# Processed by: cddbd v1.4PL0 Copyright (c) Steve Scherf et al.
# Submitted via: ExactAudioCopy v0.90a11
#
DISCID=f20a6d13
DTITLE=Patsy Cline - Birth Of A Country Legend
DYEAR=1900
DGENRE=
TTITLE0=Intro (Interwiew With Viginia Hensley)
TTITLE1=Walking After Midnight
TTITLE2=Then You'll Know
TTITLE3=Too Many Secrets
TTITLE4=Come On In (And Make Yourself At Home)
TTITLE5=I Don't Wanna
TTITLE6=Your Cheatin' Heart
TTITLE7=Don't Ever Leave Me Again
TTITLE8=The Man Upstairs
TTITLE9=Walking Dream
TTITLE10=Try Again
TTITLE11=Two Cigarettes In An Ashtray
TTITLE12=Stop The World (And Let Me Get Off)
TTITLE13=Down By The Riverside
TTITLE14=Write Me In Care Of The Blues
TTITLE15=(Ain't) No Wheels On This Ship
TTITLE16=Hungry For Love
TTITLE17=Walkin' After Midnight
TTITLE18=Awards Dialogue
EXTD=Recorded live from her appearances on the Arthur Godfrey shows.
EXTT0=Arthur Godfrey Interviews Patsy Cline
EXTT1=Patsy Cline
EXTT2=Patsy Cline
EXTT3=Patsy Cline
EXTT4=Patsy Cline
EXTT5=Patsy Cline
EXTT6=Patsy Cline
EXTT7=Patsy Cline
EXTT8=Patsy Cline
EXTT9=Patsy Cline
EXTT10=Patsy Cline
EXTT11=Patsy Cline
EXTT12=Patsy Cline
EXTT13=Patsy Cline
EXTT14=Patsy Cline
EXTT15=Patsy Cline
EXTT16=Patsy Cline
EXTT17=Patsy Cline
EXTT18=
PLAYORDER=
